:SAMPLES-PER-SECOND 30
:FULLY-SPECIFIED
:DEGREES
910
root  8.54621 33.8156 -42.7644 178.719 57.9724 168.631
RightUpLeg  -14.136 -10.702 -8.9324
RightLeg  54.8516 -2.51717 -3.18824
RightFoot  12.1915 0.137399 -0.728711
RightToes  -59.6862 -0.391586 -0.397401
Spine  -1.00582 1.94401 -2.48701
Spine1  -2.05231 3.82805 -4.18853
HEad  -14.9134 -22.4133 -0.463579
LeftShoulder1  -1.94126e-019 -3.10601e-018 -2.51263e-017
LeftArm  -24.4823 29.825 -76.7032
LeftForeArm  29.4269 -16.5995 -2.86846
LeftHand  -0.369025 -1.07901 6.76178
RightShoulder  -4.96962e-017 0 -2.36833e-017
RightArm  -26.3604 -6.50664 77.4269
RightForeArm  56.1787 29.7963 3.55215
RightHand  -0.562282 0.260527 -11.6153
LeftUpLeg  -24.1078 1.74268 -7.29921
LeftLeg  20.036 16.437 4.74383
LeftFoot  6.26028 -0.10495 2.08054
LeftToes  -12.8817 1.87998e-006 4.79886e-008
911
root  9.2908 33.9648 -43.5285 178.024 60.2027 168.115
RightUpLeg  -19.8775 -11.8252 -9.02804
RightLeg  63.3157 -3.48406 -6.02997
RightFoot  16.0175 0.333104 -1.79239
RightToes  -33.7213 -0.170368 -0.27698
Spine  -0.814806 1.5603 -2.35908
Spine1  -1.66471 3.09115 -3.92727
HEad  -13.5804 -20.8739 -1.20112
LeftShoulder1  -1.94126e-019 -3.10601e-018 -2.51263e-017
LeftArm  -24.2112 28.6145 -77.0668
LeftForeArm  31.4681 -12.2288 -2.16061
LeftHand  -0.358819 -0.974637 6.67711
RightShoulder  -4.96962e-017 0 -2.36833e-017
RightArm  -26.4239 -6.77084 77.0758
RightForeArm  55.3292 26.1462 2.8244
RightHand  -0.547102 0.0565433 -11.7087
LeftUpLeg  -21.8768 4.71723 -7.8359
LeftLeg  19.4529 15.8215 4.40044
LeftFoot  4.28171 -0.0471561 1.42297
LeftToes  -11.7517 1.87998e-006 4.79886e-008
912
root  10.0549 34.1329 -44.2374 179.273 61.0131 169.409
RightUpLeg  -24.3374 -13.899 -7.81056
RightLeg  67.0872 -3.46616 -7.02338
RightFoot  11.9621 0.215016 -1.47386
RightToes  -31.0179 -0.150993 -0.258978
Spine  -0.713679 0.861666 -1.9217
Spine1  -1.44218 1.71006 -3.04647
HEad  -12.4897 -19.7419 -1.98884
LeftShoulder1  -1.94126e-019 -3.10601e-018 -2.51263e-017
LeftArm  -22.9721 27.5158 -77.6755
LeftForeArm  34.8421 -9.50821 -1.66953
LeftHand  -0.365843 -1.2407 6.55416
RightShoulder  -4.96962e-017 0 -2.36833e-017
RightArm  -28.4655 -7.90007 76.1424
RightForeArm  56.8961 23.2444 2.44739
RightHand  -0.536986 0.240137 -11.1354
LeftUpLeg  -19.9352 4.08667 -7.19155
LeftLeg  18.8336 17.0472 4.5363
LeftFoot  3.06345 -0.0260694 1.13647
LeftToes  -11.7027 1.87998e-006 4.79886e-008
913
root  10.8942 34.3098 -44.869 -178.694 61.6783 171.735
RightUpLeg  -27.851 -15.3606 -5.62087
RightLeg  67.0361 -3.16356 -6.41443
RightFoot  10.6138 0.160952 -1.15901
RightToes  -30.2111 -0.145378 -0.253431
Spine  -0.572342 0.495403 -1.40951
Spine1  -1.16432 1.00125 -2.0434
HEad  -11.3638 -19.4262 -2.38342
LeftShoulder1  -1.94126e-019 -3.10601e-018 -2.51263e-017
LeftArm  -20.4496 26.7131 -77.9733
LeftForeArm  36.9579 -10.1071 -1.77699
LeftHand  -0.392609 -1.34228 6.92618
RightShoulder  -4.96962e-017 0 -2.36833e-017
RightArm  -31.2353 -10.4393 74.8985
RightForeArm  57.2776 20.9315 2.12886
RightHand  -0.492067 -0.132668 -10.8993
LeftUpLeg  -17.6188 3.28346 -6.04488
LeftLeg  17.8147 18.4972 4.56484
LeftFoot  1.94765 -0.0114173 0.833259
LeftToes  -11.2636 1.87998e-006 4.79886e-008
914
root  11.7545 34.4535 -45.4747 -177.414 62.8213 173.102
RightUpLeg  -30.8939 -15.696 -3.73861
RightLeg  64.0221 -2.82063 -5.05345
RightFoot  8.3615 0.090732 -0.676738
RightToes  -28.5811 -0.134273 -0.241984
Spine  -0.456049 0.326629 -1.05565
Spine1  -0.937094 0.679507 -1.35993
HEad  -10.8391 -18.9266 -2.49862
LeftShoulder1  -1.94126e-019 -3.10601e-018 -2.51263e-017
LeftArm  -18.4159 26.534 -77.9408
LeftForeArm  37.0684 -12.5331 -2.2215
LeftHand  -0.4032 -1.1742 7.27752
RightShoulder  -4.96962e-017 0 -2.36833e-017
RightArm  -33.3041 -13.5766 73.6696
RightForeArm  55.8093 19.1091 1.85174
RightHand  -0.472724 -0.490076 -11.2008
LeftUpLeg  -14.822 4.69998 -5.5326
LeftLeg  15.4474 18.466 3.77237
LeftFoot  1.11988 -0.00370471 0.540667
LeftToes  -10.5313 1.87998e-006 4.79886e-008
915
root  12.6237 34.5375 -46.041 -175.849 63.9709 174.735
RightUpLeg  -32.8644 -15.309 -1.8718
RightLeg  57.7295 -2.81215 -3.94737
RightFoot  6.50562 0.0536071 -0.385735
RightToes  -28.9121 -0.134349 -0.244334
Spine  -0.394397 0.0617595 -0.619255
Spine1  -0.813108 0.152408 -0.507585
HEad  -10.6213 -17.889 -2.74874
LeftShoulder1  -1.94126e-019 -3.10601e-018 -2.51263e-017
LeftArm  -16.7949 26.8439 -77.7557
LeftForeArm  35.0629 -15.762 -2.81865
LeftHand  -0.399527 -1.1641 7.22269
RightShoulder  -4.96962e-017 0 -2.36833e-017
RightArm  -35.6585 -16.3664 72.2116
RightForeArm  54.6894 16.4825 1.52214
RightHand  -0.472421 -0.499306 -11.2138
LeftUpLeg  -12.2683 6.95391 -4.86643
LeftLeg  13.4269 17.4649 2.94879
LeftFoot  0.298987 -0.000230352 0.249949
LeftToes  -10.6584 1.87998e-006 4.79886e-008
